<svg xmlns="http://www.w3.org/2000/svg" xmlns:xlink="http://www.w3.org/1999/xlink" width="500" zoomAndPan="magnify" viewBox="0 0 375 374.999991" height="500" preserveAspectRatio="xMidYMid meet" version="1.0"><defs><clipPath id="f5ee24ba05"><path d="M 119 8 L 300 8 L 300 366.808594 L 119 366.808594 Z M 119 8 " clip-rule="nonzero"/></clipPath><clipPath id="ce5a984083"><path d="M 76 7.558594 L 120 7.558594 L 120 366.808594 L 76 366.808594 Z M 76 7.558594 " clip-rule="nonzero"/></clipPath></defs><g clip-path="url(#f5ee24ba05)"><path fill="#40bb6a" d="M 299.980469 11.09375 L 296.101562 348.253906 L 119.585938 366.410156 L 119.585938 8.023438 L 299.980469 11.09375 " fill-opacity="1" fill-rule="nonzero"/></g><path fill="#fac409" d="M 276.585938 33.792969 L 275.589844 122.171875 L 273.203125 327.410156 L 142.703125 340.835938 L 142.703125 31.496094 L 203.65625 32.546875 L 224.003906 32.90625 L 276.585938 33.792969 " fill-opacity="1" fill-rule="nonzero"/><g clip-path="url(#ce5a984083)"><path fill="#299740" d="M 119.585938 8.023438 L 119.585938 366.410156 L 119.558594 366.410156 L 76.398438 362.121094 L 76.648438 324.199219 L 76.816406 296.492188 L 78.3125 71.90625 L 78.480469 44.199219 L 78.726562 7.25 L 119.585938 8.023438 " fill-opacity="1" fill-rule="nonzero"/></g><path fill="#fac409" d="M 119.585938 78.132812 L 78.3125 78.132812 L 78.3125 65.679688 L 119.585938 65.679688 L 119.585938 78.132812 " fill-opacity="1" fill-rule="nonzero"/><path fill="#fac409" d="M 119.585938 50.425781 L 78.480469 50.425781 L 78.480469 37.972656 L 119.585938 37.972656 L 119.585938 50.425781 " fill-opacity="1" fill-rule="nonzero"/><path fill="#fac409" d="M 119.585938 330.425781 L 76.648438 330.425781 L 76.648438 317.972656 L 119.585938 317.972656 L 119.585938 330.425781 " fill-opacity="1" fill-rule="nonzero"/><path fill="#fac409" d="M 119.585938 302.71875 L 76.816406 302.71875 L 76.816406 290.265625 L 119.585938 290.265625 L 119.585938 302.71875 " fill-opacity="1" fill-rule="nonzero"/><path fill="#40bb6a" d="M 141.789062 134.765625 L 139.40625 125.714844 C 175.550781 116.21875 200.773438 83.476562 200.773438 46.109375 C 200.773438 40.214844 200.136719 34.347656 198.917969 28.726562 L 208.066406 26.734375 C 209.421875 33.015625 210.144531 39.550781 210.144531 46.109375 C 210.144531 87.710938 182.035156 124.164062 141.789062 134.765625 " fill-opacity="1" fill-rule="nonzero"/><path fill="#40bb6a" d="M 275.949219 124.578125 C 241.382812 110.378906 219.042969 77.082031 219.042969 39.742188 C 219.042969 35.675781 219.347656 31.550781 219.875 27.480469 L 229.160156 28.699219 C 228.660156 32.351562 228.410156 36.0625 228.410156 39.742188 C 228.410156 73.261719 248.480469 103.183594 279.523438 115.914062 L 275.949219 124.578125 " fill-opacity="1" fill-rule="nonzero"/><path fill="#40bb6a" d="M 215.660156 337.429688 C 214.050781 331.203125 213.109375 324.699219 212.859375 318.136719 C 211.28125 276.5625 238 239.085938 277.804688 226.992188 L 280.523438 235.929688 C 244.765625 246.78125 220.789062 280.4375 222.203125 317.777344 C 222.453125 323.699219 223.28125 329.511719 224.722656 335.078125 L 215.660156 337.429688 " fill-opacity="1" fill-rule="nonzero"/><path fill="#40bb6a" d="M 199.054688 337.125 L 189.742188 336.265625 C 190.101562 332.585938 190.1875 328.847656 190.046875 325.195312 C 188.773438 291.675781 167.59375 262.558594 136.105469 250.988281 L 139.351562 242.214844 C 174.414062 255.113281 198.003906 287.550781 199.417969 324.835938 C 199.554688 328.90625 199.445312 333.054688 199.054688 337.125 " fill-opacity="1" fill-rule="nonzero"/><path fill="#40bb6a" d="M 211.140625 141.574219 L 216.464844 149.683594 C 218.460938 152.699219 221.8125 154.554688 225.445312 154.636719 L 235.117188 154.859375 C 242.1875 155.027344 246.011719 163.191406 241.605469 168.699219 L 234.703125 177.28125 C 232.929688 179.464844 232.375 182.371094 233.179688 185.058594 L 236.339844 195.574219 C 238.390625 202.355469 231.765625 208.5 225.167969 205.984375 L 214.855469 202.109375 C 212.25 201.109375 209.285156 201.472656 206.984375 203.046875 L 197.949219 209.304688 C 192.125 213.316406 184.226562 208.945312 184.558594 201.914062 L 185.085938 190.925781 C 185.226562 188.128906 183.976562 185.445312 181.761719 183.757812 L 172.972656 177.085938 C 167.375 172.824219 169.09375 163.964844 175.910156 162.113281 L 186.527344 159.207031 C 189.242188 158.457031 191.40625 156.464844 192.347656 153.808594 L 195.980469 143.429688 C 198.308594 136.757812 207.289062 135.679688 211.140625 141.574219 " fill-opacity="1" fill-rule="nonzero"/></svg>